<?xml version="1.0" encoding="utf-8"?>
<!-- Generator: Adobe Illustrator 23.0.0, SVG Export Plug-In . SVG Version: 6.00 Build 0)  -->
<svg version="1.1" id="Layer_1" xmlns="http://www.w3.org/2000/svg" xmlns:xlink="http://www.w3.org/1999/xlink" x="0px" y="0px"
	 viewBox="0 0 118.59 138.62" style="enable-background:new 0 0 118.59 138.62;" xml:space="preserve">
<style type="text/css">
	.st0{fill:url(#SVGID_1_);stroke:#412312;stroke-width:0.2605;stroke-miterlimit:10;}
	.st1{fill:url(#SVGID_2_);stroke:#412312;stroke-width:0.2605;stroke-miterlimit:10;}
	.st2{fill:url(#SVGID_3_);}
</style>
<g>
	<g>
		<linearGradient id="SVGID_1_" gradientUnits="userSpaceOnUse" x1="31.13" y1="69.6145" x2="85.9935" y2="69.6145">
			<stop  offset="0" style="stop-color:#563E18"/>
			<stop  offset="0.0764" style="stop-color:#9E883E"/>
			<stop  offset="0.1328" style="stop-color:#DDCC60"/>
			<stop  offset="0.16" style="stop-color:#FEF270"/>
			<stop  offset="0.8275" style="stop-color:#C8BA42"/>
			<stop  offset="0.8551" style="stop-color:#B5A43D"/>
			<stop  offset="0.9094" style="stop-color:#8C7730"/>
			<stop  offset="0.9847" style="stop-color:#563E18"/>
			<stop  offset="0.985" style="stop-color:#563E18"/>
		</linearGradient>
		<path class="st0" d="M85.99,49.79L68.47,32.27L31.13,69.61l37.34,37.34l17.52-17.52L66.17,69.61L85.99,49.79z M84.52,89.44
			l-16.05,16.05L32.6,69.61l35.87-35.87l16.05,16.05L64.69,69.61L84.52,89.44z"/>
		<linearGradient id="SVGID_2_" gradientUnits="userSpaceOnUse" x1="1.4669" y1="69.6145" x2="116.5924" y2="69.6145">
			<stop  offset="0" style="stop-color:#563E18"/>
			<stop  offset="0.0764" style="stop-color:#9E883E"/>
			<stop  offset="0.1328" style="stop-color:#DDCC60"/>
			<stop  offset="0.16" style="stop-color:#FEF270"/>
			<stop  offset="0.8275" style="stop-color:#C8BA42"/>
			<stop  offset="0.8551" style="stop-color:#B5A43D"/>
			<stop  offset="0.9094" style="stop-color:#8C7730"/>
			<stop  offset="0.9847" style="stop-color:#563E18"/>
			<stop  offset="0.985" style="stop-color:#563E18"/>
		</linearGradient>
		<path class="st1" d="M116.59,22.97l-0.74-0.74C103.2,9.58,86.37,2.61,68.47,2.61S33.75,9.58,21.09,22.23S1.47,51.72,1.47,69.61
			S8.44,104.34,21.09,117s29.48,19.63,47.38,19.63c17.9,0,34.73-6.97,47.38-19.63l0.74-0.74L69.95,69.61L116.59,22.97z M96.02,97.16
			l19.1,19.1c-11.94,11.94-28.43,19.32-46.64,19.32c-36.43,0-65.97-29.53-65.97-65.97S32.04,3.65,68.47,3.65
			c18.22,0,34.59,7.38,46.53,19.32L86.91,50.94v0L68.36,69.61L96.02,97.16z"/>
	</g>
	<linearGradient id="SVGID_3_" gradientUnits="userSpaceOnUse" x1="58.8139" y1="3.6492" x2="58.8139" y2="135.5798">
		<stop  offset="0.16" style="stop-color:#FEF270"/>
		<stop  offset="0.8275" style="stop-color:#C8BA42"/>
	</linearGradient>
	<path class="st2" d="M96.02,97.16L68.47,69.61l18.67-18.67v0l27.97-27.97C103.18,11.03,86.69,3.65,68.47,3.65
		c-36.43,0-65.97,29.53-65.97,65.97s29.53,65.97,65.97,65.97c18.22,0,34.71-7.38,46.64-19.32L96.02,97.16z M31.13,69.61l37.34-37.34
		l17.52,17.52L66.17,69.61l19.83,19.83l-17.52,17.52L31.13,69.61z"/>
</g>
</svg>
